# xmcd
#
# Track frame offsets: 
#        150
#        12352
#        38654
#        61399
#        77846
#        95937
#        111815
#        133024
#        148501
#        161893
#        177677
#
# Disc length: 2695 seconds
#
# Revision: 7
# Processed by: cddbd v1.5.2PL0 Copyright (c) Steve Scherf et al.
# Submitted via: ExactAudioCopyFreeDBPlugin 1.0
#
DISCID=8f0a850b,9d0a850b
DTITLE=Taj Mahal and the Hula Blues Band - Hanapepe Dream
DYEAR=2001
DGENRE=Blues
TTITLE0=Great Big Boat
TTITLE1=Blackjack Davey
TTITLE2=Moonlight Lady
TTITLE3=King Edward's Throne
TTITLE4=African Herbman
TTITLE5=Baby You're My Destiny
TTITLE6=Stagger Lee
TTITLE7=Living' On Easy
TTITLE8=My Creole Belle
TTITLE9=All Along The Watchtower
TTITLE10=Hanapepe Dream
EXTD=YEAR: 2005
EXTT0=
EXTT1=
EXTT2=
EXTT3=
EXTT4=
EXTT5=
EXTT6=
EXTT7=
EXTT8=
EXTT9=
EXTT10=
PLAYORDER=
